<mxfile host="app.diagrams.net" modified="2021-12-28T14:07:30.164Z" agent="5.0 (Macintosh; Intel Mac OS X 10_15_7) AppleWebKit/537.36 (KHTML, like Gecko) Chrome/96.0.4664.110 Safari/537.36" etag="-8QfF7sC6EcsNOLvwDJ6" version="16.1.0" type="github">
  <diagram id="nc4mKjtdBgmFFiV7858P" name="第 1 页">
    <mxGraphModel dx="1426" dy="803" grid="1" gridSize="10" guides="1" tooltips="1" connect="1" arrows="1" fold="1" page="1" pageScale="1" pageWidth="1169" pageHeight="827" math="0" shadow="0">
      <root>
        <mxCell id="0" />
        <mxCell id="1" parent="0" />
        <mxCell id="EDF4gS8cPWlLOGGl1yAr-1" value="" style="shape=folder;fontStyle=1;spacingTop=10;tabWidth=60;tabHeight=30;tabPosition=left;html=1;fillColor=#f5f5f5;fontColor=#333333;strokeColor=#666666;" vertex="1" parent="1">
          <mxGeometry x="430" y="160" width="320" height="200" as="geometry" />
        </mxCell>
        <mxCell id="EDF4gS8cPWlLOGGl1yAr-2" value="&lt;p style=&quot;margin: 0px ; margin-top: 4px ; text-align: center&quot;&gt;&lt;i&gt;&amp;lt;&amp;lt;Interface&amp;gt;&amp;gt;&lt;/i&gt;&lt;br&gt;&lt;b&gt;&lt;font style=&quot;font-size: 20px&quot;&gt;Reader&lt;/font&gt;&lt;/b&gt;&lt;/p&gt;&lt;hr size=&quot;1&quot;&gt;&lt;p style=&quot;margin: 0px 0px 0px 4px ; font-size: 18px&quot;&gt;&lt;font style=&quot;font-size: 18px&quot;&gt;+&amp;nbsp;&lt;/font&gt;&lt;font style=&quot;font-size: 18px&quot;&gt;Read(p []byte) (n int, err error)&lt;/font&gt;&lt;/p&gt;" style="verticalAlign=top;align=left;overflow=fill;fontSize=12;fontFamily=Helvetica;html=1;" vertex="1" parent="1">
          <mxGeometry x="456" y="229" width="270" height="90" as="geometry" />
        </mxCell>
        <mxCell id="EDF4gS8cPWlLOGGl1yAr-3" value="io" style="text;align=center;fontStyle=1;verticalAlign=middle;spacingLeft=3;spacingRight=3;strokeColor=none;rotatable=0;points=[[0,0.5],[1,0.5]];portConstraint=eastwest;fontSize=22;" vertex="1" parent="1">
          <mxGeometry x="420" y="160" width="80" height="26" as="geometry" />
        </mxCell>
        <mxCell id="EDF4gS8cPWlLOGGl1yAr-4" value="&lt;div style=&quot;text-align: left ; line-height: 1.75 ; font-size: 14px&quot;&gt;&lt;br&gt;&lt;/div&gt;" style="shape=folder;fontStyle=1;spacingTop=10;tabWidth=90;tabHeight=40;tabPosition=left;html=1;fontSize=18;fillColor=#dae8fc;strokeColor=#6c8ebf;" vertex="1" parent="1">
          <mxGeometry x="140" y="490" width="370" height="260" as="geometry" />
        </mxCell>
        <mxCell id="EDF4gS8cPWlLOGGl1yAr-5" value="&lt;div style=&quot;text-align: left ; line-height: 1.75 ; font-size: 14px&quot;&gt;&lt;br&gt;&lt;/div&gt;" style="shape=folder;fontStyle=1;spacingTop=10;tabWidth=90;tabHeight=40;tabPosition=left;html=1;fontSize=18;fillColor=#d5e8d4;strokeColor=#82b366;" vertex="1" parent="1">
          <mxGeometry x="716" y="495" width="360" height="250" as="geometry" />
        </mxCell>
        <mxCell id="EDF4gS8cPWlLOGGl1yAr-6" value="bytes" style="text;align=center;fontStyle=1;verticalAlign=middle;spacingLeft=3;spacingRight=3;strokeColor=none;rotatable=0;points=[[0,0.5],[1,0.5]];portConstraint=eastwest;fontSize=22;" vertex="1" parent="1">
          <mxGeometry x="150" y="493" width="80" height="26" as="geometry" />
        </mxCell>
        <mxCell id="EDF4gS8cPWlLOGGl1yAr-7" value="strings" style="text;align=center;fontStyle=1;verticalAlign=middle;spacingLeft=3;spacingRight=3;strokeColor=none;rotatable=0;points=[[0,0.5],[1,0.5]];portConstraint=eastwest;fontSize=22;" vertex="1" parent="1">
          <mxGeometry x="721" y="500" width="80" height="26" as="geometry" />
        </mxCell>
        <mxCell id="EDF4gS8cPWlLOGGl1yAr-10" value="&lt;p style=&quot;margin: 0px ; margin-top: 4px ; text-align: center&quot;&gt;&lt;b&gt;&lt;font style=&quot;font-size: 20px&quot;&gt;Reader&lt;/font&gt;&lt;/b&gt;&lt;/p&gt;&lt;hr size=&quot;1&quot;&gt;&lt;p style=&quot;margin: 0px 0px 0px 4px ; font-size: 18px&quot;&gt;&lt;font style=&quot;font-size: 18px&quot;&gt;- s: string&lt;/font&gt;&lt;/p&gt;&lt;p style=&quot;margin: 0px 0px 0px 4px ; font-size: 18px&quot;&gt;&lt;font style=&quot;font-size: 18px&quot;&gt;- i: int64&lt;/font&gt;&lt;/p&gt;&lt;p style=&quot;margin: 0px 0px 0px 4px ; font-size: 18px&quot;&gt;&lt;font style=&quot;font-size: 18px&quot;&gt;- prevRune: int&lt;/font&gt;&lt;/p&gt;&lt;hr size=&quot;1&quot;&gt;&lt;p style=&quot;margin: 0px 0px 0px 4px ; font-size: 18px&quot;&gt;&lt;font style=&quot;font-size: 18px&quot;&gt;+ Len(): int&lt;/font&gt;&lt;/p&gt;&lt;p style=&quot;margin: 0px 0px 0px 4px ; font-size: 18px&quot;&gt;&lt;font style=&quot;font-size: 18px&quot;&gt;+&amp;nbsp;&lt;/font&gt;&lt;font style=&quot;font-size: 18px&quot;&gt;Read(p []byte) (n int, err error)&lt;/font&gt;&lt;br&gt;&lt;/p&gt;" style="verticalAlign=top;align=left;overflow=fill;fontSize=12;fontFamily=Helvetica;html=1;" vertex="1" parent="1">
          <mxGeometry x="756" y="558" width="280" height="170" as="geometry" />
        </mxCell>
        <mxCell id="EDF4gS8cPWlLOGGl1yAr-11" value="&lt;p style=&quot;margin: 0px ; margin-top: 4px ; text-align: center&quot;&gt;&lt;b&gt;&lt;font style=&quot;font-size: 20px&quot;&gt;Reader&lt;/font&gt;&lt;/b&gt;&lt;/p&gt;&lt;hr size=&quot;1&quot;&gt;&lt;p style=&quot;margin: 0px 0px 0px 4px ; font-size: 18px&quot;&gt;&lt;font style=&quot;font-size: 18px&quot;&gt;- s: []byte&lt;/font&gt;&lt;/p&gt;&lt;p style=&quot;margin: 0px 0px 0px 4px ; font-size: 18px&quot;&gt;&lt;font style=&quot;font-size: 18px&quot;&gt;- i: int64&lt;/font&gt;&lt;/p&gt;&lt;p style=&quot;margin: 0px 0px 0px 4px ; font-size: 18px&quot;&gt;&lt;font style=&quot;font-size: 18px&quot;&gt;- prevRune: int&lt;/font&gt;&lt;/p&gt;&lt;hr size=&quot;1&quot;&gt;&lt;p style=&quot;margin: 0px 0px 0px 4px ; font-size: 18px&quot;&gt;&lt;font style=&quot;font-size: 18px&quot;&gt;+ Len(): int&lt;/font&gt;&lt;/p&gt;&lt;p style=&quot;margin: 0px 0px 0px 4px ; font-size: 18px&quot;&gt;&lt;font style=&quot;font-size: 18px&quot;&gt;+&amp;nbsp;&lt;/font&gt;&lt;font style=&quot;font-size: 18px&quot;&gt;Read(p []byte) (n int, err error)&lt;/font&gt;&lt;br&gt;&lt;/p&gt;" style="verticalAlign=top;align=left;overflow=fill;fontSize=12;fontFamily=Helvetica;html=1;" vertex="1" parent="1">
          <mxGeometry x="185" y="560" width="280" height="170" as="geometry" />
        </mxCell>
        <mxCell id="EDF4gS8cPWlLOGGl1yAr-13" value="Extends" style="endArrow=block;endSize=16;endFill=0;html=1;rounded=0;fontSize=18;exitX=0.522;exitY=0.154;exitDx=0;exitDy=0;exitPerimeter=0;entryX=0.5;entryY=1;entryDx=0;entryDy=0;" edge="1" parent="1" source="EDF4gS8cPWlLOGGl1yAr-4" target="EDF4gS8cPWlLOGGl1yAr-2">
          <mxGeometry width="160" relative="1" as="geometry">
            <mxPoint x="520" y="480" as="sourcePoint" />
            <mxPoint x="680" y="480" as="targetPoint" />
          </mxGeometry>
        </mxCell>
        <mxCell id="EDF4gS8cPWlLOGGl1yAr-14" value="Extends" style="endArrow=block;endSize=16;endFill=0;html=1;rounded=0;fontSize=18;exitX=0;exitY=0;exitDx=225;exitDy=40;exitPerimeter=0;" edge="1" parent="1" source="EDF4gS8cPWlLOGGl1yAr-5">
          <mxGeometry width="160" relative="1" as="geometry">
            <mxPoint x="343.1400000000001" y="540.04" as="sourcePoint" />
            <mxPoint x="590" y="320" as="targetPoint" />
          </mxGeometry>
        </mxCell>
      </root>
    </mxGraphModel>
  </diagram>
</mxfile>
